{
  "accessors": [
    {
      "bufferView": 2,
      "componentType": 5126,
      "count": 65532,
      "max": [
        -0.18052400648593903,
        7.756157875061035,
        0.458079993724823
      ],
      "min": [
        -1.562427043914795,
        6.5312628746032715,
        -0.7122780084609985
      ],
      "type": "VEC3"
    },
    {
      "bufferView": 2,
      "byteOffset": 786384,
      "componentType": 5126,
      "count": 65532,
      "max": [
        0.9796206951141357,
        0.9999756217002869,
        0.9999734163284302
      ],
      "min": [
        -0.9999021291732788,
        -0.9999607801437378,
        -0.9999826550483704
      ],
      "type": "VEC3"
    },
    {
      "bufferView": 1,
      "componentType": 5126,
      "count": 65532,
      "max": [
        0.9980210065841675,
        0.8711310029029846
      ],
      "min": [
        0.0,
        7.100000220816582e-05
      ],
      "type": "VEC2"
    },
    {
      "bufferView": 0,
      "componentType": 5125,
      "count": 359229,
      "type": "SCALAR"
    },
    {
      "bufferView": 2,
      "byteOffset": 1572768,
      "componentType": 5126,
      "count": 65532,
      "max": [
        0.20520299673080444,
        7.755763053894043,
        0.45321598649024963
      ],
      "min": [
        -1.3026399612426758,
        6.541399955749512,
        -0.7119550108909607
      ],
      "type": "VEC3"
    },
    {
      "bufferView": 2,
      "byteOffset": 2359152,
      "componentType": 5126,
      "count": 65532,
      "max": [
        0.999992311000824,
        0.9999307990074158,
        0.9999692440032959
      ],
      "min": [
        -0.9896535873413086,
        -0.9998577833175659,
        -0.9999931454658508
      ],
      "type": "VEC3"
    },
    {
      "bufferView": 1,
      "byteOffset": 524256,
      "componentType": 5126,
      "count": 65532,
      "max": [
        0.9980490207672119,
        0.9380890130996704
      ],
      "min": [
        0.0,
        0.014015000313520432
      ],
      "type": "VEC2"
    },
    {
      "bufferView": 0,
      "byteOffset": 1436916,
      "componentType": 5125,
      "count": 344712,
      "type": "SCALAR"
    },
    {
      "bufferView": 2,
      "byteOffset": 3145536,
      "componentType": 5126,
      "count": 51812,
      "max": [
        0.20492500066757202,
        7.757427215576172,
        0.4575459957122803
      ],
      "min": [
        -1.2636140584945679,
        6.53167200088501,
        -0.7122780084609985
      ],
      "type": "VEC3"
    },
    {
      "bufferView": 2,
      "byteOffset": 3767280,
      "componentType": 5126,
      "count": 51812,
      "max": [
        0.9999560713768005,
        0.9999665021896362,
        0.9999750256538391
      ],
      "min": [
        -0.936011016368866,
        -0.9999427795410156,
        -0.9999828934669495
      ],
      "type": "VEC3"
    },
    {
      "bufferView": 1,
      "byteOffset": 1048512,
      "componentType": 5126,
      "count": 51812,
      "max": [
        0.9999160170555115,
        0.9434530138969421
      ],
      "min": [
        0.0004090000002179295,
        0.0006389999762177467
      ],
      "type": "VEC2"
    },
    {
      "bufferView": 0,
      "byteOffset": 2815764,
      "componentType": 5125,
      "count": 212523,
      "type": "SCALAR"
    }
  ],
  "asset": {
    "extras": {
      "author": "Digital Atlas of Ancient Life (https://sketchfab.com/DigitalAtlasOfAncientLife)",
      "license": "CC0-1.0 (http://creativecommons.org/publicdomain/zero/1.0/)",
      "source": "https://sketchfab.com/3d-models/cephalopod-gunnarites-sp-pri-61543-aa818d5b7bc54fe288f81aa72156b816",
      "title": "Cephalopod: Gunnarites sp. (PRI 61543)"
    },
    "generator": "Sketchfab-12.68.0",
    "version": "2.0"
  },
  "bufferViews": [
    {
      "buffer": 0,
      "byteLength": 3665856,
      "name": "floatBufferViews",
      "target": 34963
    },
    {
      "buffer": 0,
      "byteLength": 1463008,
      "byteOffset": 3665856,
      "byteStride": 8,
      "name": "floatBufferViews",
      "target": 34962
    },
    {
      "buffer": 0,
      "byteLength": 4389024,
      "byteOffset": 5128864,
      "byteStride": 12,
      "name": "floatBufferViews",
      "target": 34962
    }
  ],
  "buffers": [
    {
      "byteLength": 9517888,
      "uri": "scene.bin"
    }
  ],
  "extensionsUsed": [
    "KHR_materials_unlit"
  ],
  "images": [
    {
      "uri": "PRI_Gunnarites_baseColor.jpeg"
    }
  ],
  "materials": [
    {
      "doubleSided": true,
      "extensions": {
        "KHR_materials_unlit": {}
      },
      "name": "PRI_Gunnarites",
      "pbrMetallicRoughness": {
        "baseColorTexture": {
          "index": 0
        },
        "metallicFactor": 0.0
      }
    }
  ],
  "meshes": [
    {
      "name": "Object_0",
      "primitives": [
        {
          "attributes": {
            "NORMAL": 1,
            "POSITION": 0,
            "TEXCOORD_0": 2
          },
          "indices": 3,
          "material": 0,
          "mode": 4
        }
      ]
    },
    {
      "name": "Object_1",
      "primitives": [
        {
          "attributes": {
            "NORMAL": 5,
            "POSITION": 4,
            "TEXCOORD_0": 6
          },
          "indices": 7,
          "material": 0,
          "mode": 4
        }
      ]
    },
    {
      "name": "Object_2",
      "primitives": [
        {
          "attributes": {
            "NORMAL": 9,
            "POSITION": 8,
            "TEXCOORD_0": 10
          },
          "indices": 11,
          "material": 0,
          "mode": 4
        }
      ]
    }
  ],
  "nodes": [
    {
      "children": [
        1
      ],
      "matrix": [
        -0.9993752241134644,
        -0.01841437444090844,
        0.03016683273017406,
        0.0,
        0.0353429913520813,
        -0.5206936001777651,
        0.8530117273330687,
        0.0,
        6.938893903907228e-18,
        0.8535450100898742,
        0.5210191607475283,
        0.0,
        -1.6093095541000366,
        3.6889028549194367,
        -13.151857376098633,
        1.0
      ],
      "name": "Sketchfab_model"
    },
    {
      "children": [
        2,
        3,
        4
      ],
      "name": "PRI_Gunnarites.obj.cleaner.materialmerger.gles"
    },
    {
      "mesh": 0,
      "name": "Object_2"
    },
    {
      "mesh": 1,
      "name": "Object_3"
    },
    {
      "mesh": 2,
      "name": "Object_4"
    }
  ],
  "samplers": [
    {
      "magFilter": 9729,
      "minFilter": 9987,
      "wrapS": 10497,
      "wrapT": 10497
    }
  ],
  "scene": 0,
  "scenes": [
    {
      "name": "Sketchfab_Scene",
      "nodes": [
        0
      ]
    }
  ],
  "textures": [
    {
      "sampler": 0,
      "source": 0
    }
  ]
}
